<svg width="16" height="16" viewBox="0 0 16 16" fill="none" xmlns="http://www.w3.org/2000/svg">
<path fill-rule="evenodd" clip-rule="evenodd" d="M2.86194 5.52898C2.98696 5.40399 3.1565 5.33377 3.33327 5.33377C3.51005 5.33377 3.67959 5.40399 3.80461 5.52898L7.99994 9.72452L12.1953 5.52898C12.2568 5.4653 12.3303 5.41451 12.4117 5.37957C12.493 5.34463 12.5805 5.32623 12.669 5.32546C12.7575 5.3247 12.8453 5.34156 12.9272 5.37509C13.0092 5.40861 13.0836 5.45811 13.1462 5.52071C13.2088 5.58331 13.2583 5.65775 13.2918 5.73968C13.3253 5.82162 13.3422 5.90941 13.3414 5.99793C13.3407 6.08646 13.3223 6.17394 13.2873 6.25528C13.2524 6.33662 13.2016 6.41019 13.1379 6.47169L8.47127 11.1386C8.34625 11.2636 8.17672 11.3338 7.99994 11.3338C7.82316 11.3338 7.65362 11.2636 7.52861 11.1386L2.86194 6.47169C2.73696 6.34666 2.66675 6.17712 2.66675 6.00033C2.66675 5.82355 2.73696 5.654 2.86194 5.52898Z" fill="white"/>
</svg>
