<svg width="16" height="16" viewBox="0 0 16 16" fill="none" xmlns="http://www.w3.org/2000/svg">
<path fill-rule="evenodd" clip-rule="evenodd" d="M7.99996 2.66675C8.17677 2.66675 8.34634 2.73699 8.47136 2.86202C8.59639 2.98705 8.66663 3.15663 8.66663 3.33345V7.33364H12.6666C12.8434 7.33364 13.013 7.40388 13.138 7.52891C13.2631 7.65394 13.3333 7.82352 13.3333 8.00034C13.3333 8.17716 13.2631 8.34674 13.138 8.47177C13.013 8.5968 12.8434 8.66704 12.6666 8.66704H8.66663V12.6672C8.66663 12.8441 8.59639 13.0136 8.47136 13.1387C8.34634 13.2637 8.17677 13.3339 7.99996 13.3339C7.82315 13.3339 7.65358 13.2637 7.52855 13.1387C7.40353 13.0136 7.33329 12.8441 7.33329 12.6672V8.66704H3.33329C3.15648 8.66704 2.98691 8.5968 2.86189 8.47177C2.73686 8.34674 2.66663 8.17716 2.66663 8.00034C2.66663 7.82352 2.73686 7.65394 2.86189 7.52891C2.98691 7.40388 3.15648 7.33364 3.33329 7.33364H7.33329V3.33345C7.33329 3.15663 7.40353 2.98705 7.52855 2.86202C7.65358 2.73699 7.82315 2.66675 7.99996 2.66675Z" fill="white"/>
</svg>
