<svg width="24" height="24" viewBox="0 0 24 24" fill="none" xmlns="http://www.w3.org/2000/svg">
<path fill-rule="evenodd" clip-rule="evenodd" d="M8.04303 5.17578C8.62909 4.73158 9.29932 4.4111 10.013 4.23383C9.98029 3.95353 10.0073 3.66947 10.0921 3.40033C10.177 3.13119 10.3179 2.88306 10.5055 2.67225C10.6932 2.46145 10.9233 2.29273 11.1808 2.17721C11.4383 2.06168 11.7173 2.00195 11.9995 2.00195C12.2818 2.00195 12.5608 2.06168 12.8183 2.17721C13.0758 2.29273 13.3059 2.46145 13.4935 2.67225C13.6811 2.88306 13.822 3.13119 13.9069 3.40033C13.9918 3.66947 14.0188 3.95353 13.986 4.23383C14.7001 4.41098 15.3707 4.73145 15.957 5.17578C16.933 5.92575 17.498 6.9307 17.832 7.93365C18.164 8.9286 18.284 9.96555 18.342 10.8385C18.366 11.1935 18.381 11.5345 18.393 11.8355L18.402 12.0384C18.417 12.3984 18.433 12.6684 18.46 12.8664C18.655 14.3283 18.898 15.3533 19.244 16.1732C19.582 16.9742 20.034 17.6192 20.707 18.2921C20.8468 18.432 20.942 18.6101 20.9806 18.8041C21.0192 18.998 20.9994 19.1991 20.9237 19.3817C20.848 19.5644 20.7199 19.7206 20.5555 19.8305C20.3911 19.9403 20.1978 19.999 20 19.9991H13.732C13.9074 20.3031 13.9997 20.6479 13.9995 20.9989C13.9994 21.3499 13.9069 21.6947 13.7314 21.9986C13.5558 22.3025 13.3033 22.5549 12.9993 22.7303C12.6953 22.9058 12.3505 22.9981 11.9995 22.9981C11.6485 22.9981 11.3037 22.9058 10.9997 22.7303C10.6957 22.5549 10.4433 22.3025 10.2677 21.9986C10.0921 21.6947 9.99965 21.3499 9.99953 20.9989C9.99941 20.6479 10.0917 20.3031 10.267 19.9991H4.00003C3.80228 19.999 3.60898 19.9403 3.44457 19.8305C3.28016 19.7206 3.15202 19.5644 3.07635 19.3817C3.00068 19.1991 2.98088 18.998 3.01945 18.8041C3.05802 18.6101 3.15322 18.432 3.29303 18.2921C3.96703 17.6182 4.41903 16.9782 4.75603 16.1802C5.10003 15.3633 5.34303 14.3383 5.54003 12.8664C5.56703 12.6674 5.58303 12.3984 5.59803 12.0374L5.60703 11.8355C5.61903 11.5355 5.63403 11.1935 5.65703 10.8385C5.71603 9.96555 5.83603 8.9286 6.16703 7.93365C6.50203 6.9307 7.06703 5.92475 8.04303 5.17578ZM6.06903 17.9992C6.26603 17.6732 6.44103 17.3292 6.59803 16.9582C7.04303 15.9053 7.31603 14.6793 7.52303 13.1324C7.5616 12.7979 7.58595 12.462 7.59603 12.1254L7.60603 11.9095C7.61803 11.6095 7.63103 11.2995 7.65303 10.9725C7.70703 10.1585 7.81303 9.32058 8.06503 8.56562C8.31503 7.81866 8.69103 7.19969 9.26103 6.76171C9.82503 6.32873 10.672 5.99974 12 5.99974C13.328 5.99974 14.175 6.32873 14.739 6.76171C15.309 7.19969 15.686 7.81866 15.935 8.56562C16.187 9.32058 16.293 10.1585 16.347 10.9725C16.369 11.2995 16.382 11.6095 16.394 11.9085L16.404 12.1244C16.419 12.4744 16.437 12.8314 16.477 13.1324C16.683 14.6703 16.956 15.8953 17.401 16.9502C17.558 17.3232 17.735 17.6702 17.933 17.9992H6.07003H6.06903Z" fill="white"/>
</svg>
